<svg id="svg" version="1.1" xmlns="http://www.w3.org/2000/svg" xmlns:xlink="http://www.w3.org/1999/xlink" width="400" height="400.81632653061223" viewBox="0, 0, 400,400.81632653061223"><g id="svgg"><path id="path0" d="M197.400 0.776 C 195.289 1.294,191.552 3.320,170.708 15.251 C 162.949 19.692,155.880 23.734,155.000 24.231 C 153.403 25.135,153.350 25.137,130.400 25.364 C 98.040 25.683,99.834 25.203,93.627 35.200 C 90.208 40.706,79.890 58.282,75.016 66.903 L 71.905 72.405 65.452 76.049 C 44.168 88.067,29.883 96.842,28.120 98.981 C 25.128 102.611,25.021 103.657,24.598 133.400 L 24.298 154.600 22.402 157.800 C 18.275 164.765,5.424 187.632,2.526 193.167 C -1.790 201.410,-1.190 202.930,22.213 243.000 L 24.315 246.600 24.614 267.800 C 25.015 296.263,25.060 296.843,27.161 300.600 C 28.867 303.652,37.031 308.932,61.200 322.614 C 66.150 325.416,70.591 327.949,71.070 328.244 C 71.548 328.538,73.596 331.709,75.620 335.289 C 80.664 344.212,93.301 365.599,95.484 368.906 C 97.917 372.593,100.668 374.539,104.182 375.059 C 104.852 375.159,106.030 375.331,106.800 375.444 C 107.570 375.556,118.459 375.740,130.997 375.854 L 153.794 376.060 155.997 377.388 C 162.158 381.101,189.821 396.727,192.600 398.063 C 201.145 402.172,200.774 402.294,229.427 385.913 L 246.653 376.065 269.427 375.865 C 292.398 375.664,293.799 375.608,296.890 374.776 C 302.488 373.268,304.065 371.068,322.052 339.663 L 328.316 328.726 337.458 323.529 C 370.046 305.007,373.840 302.204,374.669 296.038 C 374.775 295.247,374.945 293.970,375.046 293.200 C 375.148 292.430,375.330 281.722,375.452 269.404 L 375.672 247.008 384.576 231.404 C 398.156 207.604,399.208 205.579,399.784 202.118 C 400.481 197.930,399.443 195.697,385.277 170.917 L 375.626 154.034 375.595 134.117 C 375.547 103.659,374.984 100.341,369.200 96.414 C 366.270 94.424,343.100 80.703,334.800 76.042 L 328.200 72.336 323.441 63.892 C 313.253 45.819,304.400 31.252,302.400 29.274 C 301.024 27.913,298.175 26.370,296.600 26.134 C 296.160 26.068,295.170 25.917,294.400 25.800 C 293.630 25.682,282.576 25.480,269.835 25.351 L 246.670 25.117 242.435 22.613 C 210.645 3.814,202.035 -0.360,197.400 0.776 M209.721 38.866 C 214.825 41.763,223.320 46.602,228.600 49.620 L 238.200 55.107 247.000 55.347 C 251.840 55.478,262.145 55.707,269.899 55.854 L 283.999 56.121 291.653 69.361 C 299.255 82.510,304.408 91.024,306.252 93.482 C 307.381 94.988,313.149 98.560,331.310 109.000 L 344.530 116.600 344.652 121.000 C 344.933 131.157,345.258 145.579,345.389 153.800 L 345.531 162.600 354.706 178.600 C 359.753 187.400,364.629 195.878,365.541 197.440 C 367.569 200.913,367.634 200.142,364.926 204.740 C 363.675 206.863,358.798 215.350,354.088 223.600 L 345.523 238.600 345.376 247.800 C 345.237 256.556,344.920 270.707,344.652 280.164 L 344.528 284.528 330.494 292.564 C 322.775 296.984,314.235 302.010,311.516 303.734 L 306.573 306.867 303.938 310.934 C 301.136 315.259,297.724 321.059,289.391 335.666 L 284.219 344.733 281.210 344.986 C 278.279 345.232,269.898 345.438,248.556 345.787 L 238.113 345.957 220.556 356.048 C 210.900 361.598,202.352 366.503,201.560 366.946 L 200.120 367.753 196.960 365.942 C 195.222 364.946,186.637 360.035,177.881 355.030 L 161.963 345.928 152.281 345.791 C 132.705 345.515,119.217 345.161,117.583 344.882 L 115.905 344.596 107.899 330.598 C 98.215 313.668,94.426 307.615,92.703 306.321 C 90.343 304.549,80.387 298.599,68.400 291.796 C 61.910 288.113,56.393 284.897,56.139 284.650 C 55.670 284.192,55.328 274.992,54.992 253.800 C 54.904 248.300,54.720 242.499,54.583 240.908 L 54.333 238.016 44.511 220.908 C 39.109 211.499,34.257 203.051,33.730 202.134 L 32.770 200.469 35.113 196.534 C 44.648 180.520,54.173 163.263,54.452 161.498 C 54.619 160.443,54.876 153.418,55.024 145.889 C 55.171 138.360,55.347 130.760,55.414 129.000 C 55.481 127.240,55.550 123.786,55.568 121.325 L 55.600 116.849 60.900 113.670 C 63.815 111.922,70.970 107.749,76.800 104.397 C 82.630 101.045,88.867 97.423,90.661 96.348 L 93.921 94.394 97.510 88.297 C 99.484 84.944,102.228 80.220,103.608 77.800 C 110.062 66.481,116.151 56.320,116.555 56.197 C 116.800 56.123,126.963 55.949,139.140 55.812 L 161.281 55.562 171.940 49.430 C 196.053 35.559,199.423 33.656,199.921 33.629 C 200.208 33.613,204.618 35.970,209.721 38.866 M253.000 109.200 C 248.766 109.412,247.155 109.975,244.071 112.324 C 242.126 113.805,241.692 114.771,228.434 147.124 C 226.423 152.032,224.611 156.352,224.407 156.724 C 224.203 157.096,222.010 162.485,219.533 168.700 C 216.380 176.609,214.844 180.002,214.414 180.006 C 213.955 180.011,213.927 180.093,214.302 180.331 C 214.819 180.659,214.649 181.095,196.502 226.000 C 186.948 249.642,185.588 252.830,184.950 253.074 C 184.237 253.348,183.115 252.662,168.915 243.280 C 153.225 232.912,151.135 231.856,146.600 232.006 C 141.777 232.167,141.405 232.195,141.200 232.411 C 141.090 232.527,140.219 232.967,139.264 233.388 C 137.099 234.343,133.349 238.412,132.730 240.475 C 132.479 241.314,132.139 242.000,131.974 242.000 C 131.810 242.000,131.768 242.357,131.883 242.794 C 131.997 243.231,131.948 243.906,131.774 244.294 C 131.356 245.229,131.243 248.094,131.605 248.600 C 131.762 248.820,132.007 249.763,132.149 250.694 C 132.852 255.299,134.609 256.733,162.400 275.383 C 188.014 292.571,190.913 293.876,197.659 291.252 C 203.855 288.842,205.379 285.775,225.999 234.200 C 230.661 222.540,234.835 212.208,235.274 211.241 C 235.714 210.274,238.828 202.444,242.195 193.841 C 245.561 185.238,250.670 172.314,253.549 165.121 C 262.192 143.516,267.058 130.325,268.226 125.329 C 269.465 120.032,265.964 112.773,261.223 110.810 C 260.550 110.531,260.000 110.134,260.000 109.928 C 260.000 109.722,259.818 109.665,259.595 109.803 C 259.372 109.941,258.697 109.816,258.095 109.527 C 257.316 109.152,255.847 109.058,253.000 109.200 " stroke="none" fill="#040404" fill-rule="evenodd"></path><path id="path1" d="M199.105 0.283 C 199.602 0.379,200.322 0.375,200.705 0.275 C 201.087 0.175,200.680 0.096,199.800 0.101 C 198.920 0.105,198.607 0.187,199.105 0.283 M207.633 2.549 C 208.045 2.917,210.400 4.000,210.400 3.821 C 210.400 3.590,208.182 2.400,207.753 2.400 C 207.596 2.400,207.542 2.467,207.633 2.549 M189.100 4.026 C 187.835 4.679,186.800 5.303,186.800 5.412 C 186.800 5.522,187.880 5.066,189.200 4.400 C 190.520 3.734,191.600 3.101,191.600 2.994 C 191.600 2.728,191.674 2.697,189.100 4.026 M223.159 11.012 C 225.226 12.224,226.991 13.142,227.082 13.051 C 227.276 12.858,220.270 8.798,219.753 8.804 C 219.559 8.807,221.091 9.800,223.159 11.012 M174.478 12.055 C 171.770 13.613,169.639 14.973,169.742 15.076 C 169.845 15.179,170.647 14.844,171.523 14.331 C 177.948 10.578,180.147 9.220,179.800 9.220 C 179.580 9.220,177.185 10.496,174.478 12.055 M228.400 13.967 C 229.363 14.752,230.000 15.008,230.000 14.610 C 230.000 14.506,229.415 14.135,228.700 13.786 L 227.400 13.152 228.400 13.967 M231.144 15.580 C 231.664 16.031,232.249 16.400,232.444 16.400 C 233.144 16.400,232.779 16.010,231.500 15.390 L 230.200 14.760 231.144 15.580 M167.371 16.191 C 166.694 16.703,166.683 16.776,167.276 16.787 C 167.648 16.794,168.071 16.608,168.216 16.373 C 168.652 15.668,168.193 15.570,167.371 16.191 M234.000 17.172 C 234.000 17.392,234.360 17.765,234.800 18.000 C 235.315 18.275,235.600 18.285,235.600 18.028 C 235.600 17.808,235.240 17.435,234.800 17.200 C 234.285 16.925,234.000 16.915,234.000 17.172 M164.571 17.771 C 164.148 18.081,163.904 18.437,164.030 18.563 C 164.156 18.689,164.605 18.538,165.029 18.229 C 165.452 17.919,165.696 17.563,165.570 17.437 C 165.444 17.311,164.995 17.462,164.571 17.771 M161.771 19.371 C 161.348 19.681,161.104 20.037,161.230 20.163 C 161.356 20.289,161.805 20.138,162.229 19.829 C 162.652 19.519,162.896 19.163,162.770 19.037 C 162.644 18.911,162.195 19.062,161.771 19.371 M239.600 20.555 C 239.600 20.772,246.727 24.801,247.097 24.793 C 247.410 24.787,240.106 20.400,239.782 20.400 C 239.682 20.400,239.600 20.470,239.600 20.555 M156.498 22.573 C 154.903 23.506,153.463 24.420,153.298 24.603 C 152.936 25.009,159.243 21.651,159.780 21.153 C 160.629 20.365,159.262 20.956,156.498 22.573 M110.700 25.082 C 111.195 25.178,112.005 25.178,112.500 25.082 C 112.995 24.987,112.590 24.909,111.600 24.909 C 110.610 24.909,110.205 24.987,110.700 25.082 M287.900 25.082 C 288.395 25.178,289.205 25.178,289.700 25.082 C 290.195 24.987,289.790 24.909,288.800 24.909 C 287.810 24.909,287.405 24.987,287.900 25.082 M97.679 28.225 C 96.332 29.378,89.600 39.346,89.600 40.188 C 89.600 40.857,90.353 40.242,90.564 39.400 C 90.702 38.850,90.992 38.400,91.208 38.400 C 91.423 38.400,91.600 38.143,91.600 37.829 C 91.600 37.514,91.825 37.019,92.101 36.729 C 92.376 36.438,92.957 35.525,93.392 34.700 C 93.826 33.875,94.321 33.200,94.491 33.200 C 94.661 33.200,94.800 32.913,94.800 32.563 C 94.800 32.213,95.953 30.773,97.363 29.363 C 100.157 26.569,100.326 25.959,97.679 28.225 M300.624 27.387 C 301.051 27.710,301.580 27.975,301.800 27.975 C 302.020 27.975,301.851 27.710,301.424 27.387 C 300.996 27.064,300.467 26.800,300.247 26.800 C 300.027 26.800,300.196 27.064,300.624 27.387 M303.076 29.300 C 303.524 29.795,304.567 31.190,305.392 32.400 C 306.218 33.610,306.787 34.281,306.656 33.892 C 306.241 32.654,303.189 28.400,302.715 28.400 C 302.465 28.400,302.627 28.805,303.076 29.300 M307.200 34.941 C 307.200 35.361,310.434 40.800,310.684 40.800 C 310.885 40.800,308.693 36.780,307.746 35.411 C 307.446 34.977,307.200 34.766,307.200 34.941 M194.700 36.629 C 193.205 37.440,193.296 37.778,194.800 37.000 C 195.460 36.659,196.000 36.294,196.000 36.190 C 196.000 35.932,195.957 35.947,194.700 36.629 M207.723 38.275 C 207.866 38.507,208.527 38.921,209.191 39.196 C 209.856 39.472,210.400 39.840,210.400 40.014 C 210.400 40.188,212.335 41.402,214.700 42.712 C 220.612 45.986,220.800 46.077,220.800 45.657 C 220.800 45.454,220.350 45.174,219.800 45.036 C 219.250 44.898,218.800 44.598,218.800 44.369 C 218.800 44.140,218.620 44.064,218.400 44.200 C 218.180 44.336,218.000 44.276,218.000 44.067 C 218.000 43.858,217.550 43.574,217.000 43.436 C 216.450 43.298,216.000 43.030,216.000 42.841 C 216.000 42.652,215.415 42.260,214.700 41.971 C 213.985 41.682,213.310 41.330,213.200 41.188 C 212.824 40.705,207.462 37.853,207.723 38.275 M188.300 40.303 C 186.816 41.223,186.896 41.778,188.400 41.000 C 189.060 40.659,189.600 40.204,189.600 39.990 C 189.600 39.494,189.608 39.492,188.300 40.303 M184.800 42.400 C 184.293 42.840,183.987 43.200,184.120 43.200 C 184.678 43.200,186.400 42.245,186.400 41.936 C 186.400 41.375,185.772 41.557,184.800 42.400 M182.800 43.624 C 182.800 43.857,182.665 43.965,182.500 43.866 C 182.335 43.766,181.968 43.935,181.684 44.242 C 181.056 44.921,181.251 44.942,182.581 44.336 C 183.595 43.874,183.962 43.200,183.200 43.200 C 182.980 43.200,182.800 43.391,182.800 43.624 M84.200 49.600 C 83.859 50.260,83.669 50.800,83.779 50.800 C 83.889 50.800,84.259 50.260,84.600 49.600 C 84.941 48.940,85.131 48.400,85.021 48.400 C 84.911 48.400,84.541 48.940,84.200 49.600 M315.800 50.000 C 316.141 50.660,316.511 51.200,316.621 51.200 C 316.731 51.200,316.541 50.660,316.200 50.000 C 315.859 49.340,315.489 48.800,315.379 48.800 C 315.269 48.800,315.459 49.340,315.800 50.000 M227.600 49.779 C 227.600 49.889,228.140 50.259,228.800 50.600 C 229.460 50.941,230.000 51.131,230.000 51.021 C 230.000 50.911,229.460 50.541,228.800 50.200 C 228.140 49.859,227.600 49.669,227.600 49.779 M169.900 51.029 C 168.405 51.840,168.496 52.178,170.000 51.400 C 170.660 51.059,171.200 50.694,171.200 50.590 C 171.200 50.332,171.157 50.347,169.900 51.029 M81.616 54.171 C 80.714 55.804,79.823 57.199,79.636 57.271 C 79.145 57.458,77.578 60.511,77.840 60.773 C 78.067 61.001,79.037 59.521,78.842 59.245 C 78.781 59.159,78.897 58.979,79.100 58.845 C 79.681 58.459,83.804 51.200,83.442 51.200 C 83.340 51.200,82.518 52.537,81.616 54.171 M230.400 51.360 C 230.400 51.764,237.552 55.597,238.247 55.566 C 238.807 55.540,238.744 55.452,238.000 55.221 C 237.450 55.051,236.054 54.351,234.899 53.665 C 232.131 52.024,230.400 51.137,230.400 51.360 M317.240 52.500 C 318.497 54.914,320.973 59.027,321.300 59.245 C 321.503 59.379,321.639 59.645,321.604 59.835 C 321.569 60.025,321.745 60.248,321.996 60.332 C 322.476 60.492,320.553 56.536,320.047 56.323 C 319.885 56.256,319.165 55.165,318.447 53.900 C 317.202 51.707,316.256 50.610,317.240 52.500 M164.905 53.878 C 163.093 54.904,161.670 55.804,161.744 55.877 C 161.897 56.030,168.400 52.396,168.400 52.157 C 168.400 51.902,168.344 51.930,164.905 53.878 M253.312 55.895 C 254.364 55.977,255.984 55.976,256.912 55.892 C 257.840 55.808,256.980 55.741,255.000 55.742 C 253.020 55.743,252.260 55.812,253.312 55.895 M128.082 56.296 C 129.558 56.373,132.078 56.373,133.682 56.297 C 135.287 56.221,134.080 56.158,131.000 56.158 C 127.920 56.157,126.607 56.219,128.082 56.296 M272.912 56.295 C 273.964 56.377,275.584 56.376,276.512 56.292 C 277.440 56.208,276.580 56.141,274.600 56.142 C 272.620 56.143,271.860 56.212,272.912 56.295 M113.847 60.926 C 111.575 64.846,110.745 66.400,110.924 66.400 C 111.216 66.400,114.926 59.993,114.741 59.808 C 114.655 59.722,114.253 60.225,113.847 60.926 M285.604 60.148 C 285.598 60.640,289.679 67.654,289.864 67.469 C 289.948 67.386,289.024 65.626,287.812 63.559 C 286.600 61.491,285.607 59.957,285.604 60.148 M76.400 62.800 C 76.165 63.240,76.115 63.600,76.290 63.600 C 76.465 63.600,76.832 63.240,77.107 62.800 C 77.384 62.357,77.433 62.000,77.217 62.000 C 77.003 62.000,76.635 62.360,76.400 62.800 M323.219 62.600 C 323.209 63.194,323.923 64.210,324.174 63.959 C 324.294 63.840,324.129 63.395,323.809 62.971 C 323.488 62.547,323.222 62.380,323.219 62.600 M74.818 65.566 C 74.573 66.025,74.539 66.400,74.743 66.400 C 75.154 66.400,75.722 65.188,75.442 64.908 C 75.344 64.811,75.064 65.107,74.818 65.566 M324.819 65.400 C 324.809 65.994,325.523 67.010,325.774 66.759 C 325.894 66.640,325.729 66.195,325.409 65.771 C 325.088 65.347,324.822 65.180,324.819 65.400 M109.814 67.835 C 109.441 68.404,109.227 68.961,109.339 69.072 C 109.450 69.183,109.829 68.718,110.181 68.037 C 110.959 66.533,110.744 66.415,109.814 67.835 M72.990 68.900 L 72.360 70.200 73.180 69.256 C 73.631 68.736,74.000 68.151,74.000 67.956 C 74.000 67.256,73.610 67.621,72.990 68.900 M290.586 69.100 C 290.935 69.815,291.306 70.400,291.410 70.400 C 291.808 70.400,291.552 69.763,290.767 68.800 L 289.952 67.800 290.586 69.100 M326.409 68.300 C 326.414 68.465,326.785 69.050,327.233 69.600 L 328.048 70.600 327.414 69.300 C 326.811 68.065,326.389 67.645,326.409 68.300 M71.075 71.646 C 70.456 72.281,70.110 72.800,70.305 72.800 C 70.744 72.800,72.601 70.863,72.368 70.647 C 72.276 70.562,71.694 71.011,71.075 71.646 M329.944 72.780 C 330.464 73.231,331.049 73.600,331.244 73.600 C 331.944 73.600,331.579 73.210,330.300 72.590 L 329.000 71.960 329.944 72.780 M293.618 74.434 C 293.864 74.893,294.144 75.189,294.242 75.092 C 294.522 74.812,293.954 73.600,293.543 73.600 C 293.339 73.600,293.373 73.975,293.618 74.434 M332.000 73.943 C 332.000 74.354,333.212 74.922,333.492 74.642 C 333.589 74.544,333.293 74.264,332.834 74.018 C 332.375 73.773,332.000 73.739,332.000 73.943 M65.771 74.991 C 65.347 75.312,65.180 75.578,65.400 75.581 C 65.994 75.591,67.010 74.877,66.759 74.626 C 66.640 74.506,66.195 74.671,65.771 74.991 M340.403 78.700 C 340.404 78.865,340.914 79.290,341.536 79.643 C 345.967 82.164,348.000 83.242,348.000 83.073 C 348.000 82.965,346.965 82.295,345.700 81.584 C 344.435 80.873,343.310 80.171,343.200 80.023 C 342.502 79.083,340.397 78.088,340.403 78.700 M57.700 79.288 C 57.205 79.527,56.800 79.856,56.800 80.019 C 56.800 80.182,55.000 81.335,52.800 82.580 C 50.600 83.826,48.800 84.935,48.800 85.046 C 48.800 85.156,49.925 84.603,51.300 83.817 C 52.675 83.031,55.015 81.723,56.500 80.910 C 59.500 79.267,60.475 77.950,57.700 79.288 M296.800 79.841 C 296.800 80.325,299.009 83.999,299.300 84.000 C 299.465 84.000,299.600 84.270,299.600 84.600 C 299.600 84.930,299.780 85.200,300.000 85.200 C 300.220 85.200,300.400 85.093,300.400 84.962 C 300.400 84.475,299.015 82.400,298.690 82.400 C 298.505 82.400,298.447 82.247,298.563 82.061 C 298.678 81.874,298.429 81.353,298.010 80.903 C 297.591 80.453,297.357 79.976,297.491 79.843 C 297.624 79.709,297.523 79.600,297.267 79.600 C 297.010 79.600,296.800 79.708,296.800 79.841 M102.294 80.500 C 102.188 80.775,102.124 81.103,102.151 81.229 C 102.178 81.354,101.885 81.772,101.500 82.157 C 101.115 82.542,100.800 83.099,100.800 83.395 C 100.800 83.691,100.654 83.993,100.476 84.067 C 100.078 84.231,97.456 88.800,97.760 88.800 C 97.881 88.800,98.250 88.277,98.580 87.638 C 98.911 86.999,99.419 86.234,99.708 85.938 C 100.316 85.318,103.200 80.618,103.200 80.248 C 103.200 79.794,102.489 79.992,102.294 80.500 M47.100 85.829 C 45.605 86.640,45.696 86.978,47.200 86.200 C 47.860 85.859,48.400 85.494,48.400 85.390 C 48.400 85.132,48.357 85.147,47.100 85.829 M302.349 88.600 C 302.565 89.040,303.034 89.760,303.393 90.200 L 304.044 91.000 303.651 90.200 C 303.435 89.760,302.966 89.040,302.607 88.600 L 301.956 87.800 302.349 88.600 M96.600 90.400 C 96.259 91.060,96.069 91.600,96.179 91.600 C 96.289 91.600,96.659 91.060,97.000 90.400 C 97.341 89.740,97.531 89.200,97.421 89.200 C 97.311 89.200,96.941 89.740,96.600 90.400 M39.400 90.267 C 35.526 92.316,29.094 96.621,27.850 97.997 C 25.626 100.459,26.129 100.585,28.500 98.160 C 29.655 96.978,30.825 96.009,31.100 96.006 C 31.375 96.003,31.600 95.820,31.600 95.600 C 31.600 95.380,31.792 95.200,32.027 95.200 C 32.261 95.200,33.026 94.769,33.727 94.243 C 34.427 93.716,35.630 92.940,36.400 92.518 C 38.623 91.300,40.800 89.935,40.800 89.760 C 40.800 89.536,40.745 89.556,39.400 90.267 M362.000 91.375 C 363.210 92.121,364.380 92.882,364.600 93.066 C 364.820 93.250,365.675 93.756,366.500 94.191 C 367.325 94.626,368.000 95.121,368.000 95.291 C 368.000 95.461,368.211 95.600,368.469 95.600 C 368.726 95.600,369.266 95.898,369.669 96.262 C 370.071 96.626,370.400 96.730,370.400 96.492 C 370.400 96.054,360.827 89.992,360.161 90.009 C 359.963 90.014,360.790 90.629,362.000 91.375 M95.000 93.200 C 94.659 93.860,94.469 94.400,94.579 94.400 C 94.689 94.400,95.059 93.860,95.400 93.200 C 95.741 92.540,95.931 92.000,95.821 92.000 C 95.711 92.000,95.341 92.540,95.000 93.200 M308.600 96.207 C 309.040 96.566,309.760 97.035,310.200 97.251 L 311.000 97.644 310.200 96.993 C 309.760 96.634,309.040 96.165,308.600 95.949 L 307.800 95.556 308.600 96.207 M85.400 99.679 C 83.420 100.823,81.740 101.903,81.667 102.079 C 81.593 102.256,81.278 102.400,80.967 102.400 C 80.655 102.400,80.400 102.591,80.400 102.824 C 80.400 103.057,80.220 103.136,80.000 103.000 C 79.780 102.864,79.600 102.943,79.600 103.176 C 79.600 103.909,83.984 101.673,85.480 100.177 C 85.812 99.845,86.785 99.216,87.642 98.779 C 88.499 98.341,89.200 97.897,89.200 97.792 C 89.200 97.487,89.179 97.497,85.400 99.679 M311.200 97.721 C 311.200 97.839,311.875 98.337,312.700 98.829 C 313.525 99.320,314.380 99.927,314.600 100.177 C 315.232 100.895,319.266 103.268,319.484 103.050 C 319.812 102.721,319.171 101.971,318.772 102.217 C 318.568 102.344,318.400 102.294,318.400 102.107 C 318.400 101.919,317.185 101.064,315.700 100.206 C 314.215 99.348,312.595 98.390,312.100 98.077 C 311.605 97.764,311.200 97.604,311.200 97.721 M75.212 105.584 C 74.888 105.789,74.721 106.054,74.841 106.174 C 74.960 106.294,75.405 106.129,75.829 105.809 C 76.673 105.171,76.160 104.985,75.212 105.584 M324.171 105.809 C 324.595 106.129,325.040 106.294,325.159 106.174 C 325.410 105.923,324.394 105.209,323.800 105.219 C 323.580 105.222,323.747 105.488,324.171 105.809 M326.400 106.990 C 326.400 107.094,326.985 107.465,327.700 107.814 L 329.000 108.448 328.000 107.633 C 327.037 106.848,326.400 106.592,326.400 106.990 M70.000 108.833 L 69.000 109.648 70.300 109.014 C 71.015 108.665,71.600 108.294,71.600 108.190 C 71.600 107.792,70.963 108.048,70.000 108.833 M329.200 108.590 C 329.200 108.694,329.785 109.065,330.500 109.414 L 331.800 110.048 330.800 109.233 C 329.837 108.448,329.200 108.192,329.200 108.590 M24.509 110.800 C 24.509 111.790,24.587 112.195,24.682 111.700 C 24.778 111.205,24.778 110.395,24.682 109.900 C 24.587 109.405,24.509 109.810,24.509 110.800 M66.200 110.993 C 64.880 111.753,63.958 112.381,64.151 112.388 C 64.567 112.402,68.800 110.019,68.800 109.771 C 68.800 109.502,68.734 109.533,66.200 110.993 M261.545 110.423 C 262.285 110.874,262.977 111.157,263.082 111.051 C 263.284 110.850,261.073 109.599,260.520 109.601 C 260.344 109.602,260.805 109.972,261.545 110.423 M332.000 110.124 C 332.000 110.230,333.755 111.302,335.900 112.507 C 340.791 115.255,341.600 115.672,341.600 115.449 C 341.600 115.350,339.575 114.129,337.100 112.735 C 332.018 109.872,332.000 109.863,332.000 110.124 M244.122 111.424 C 243.305 112.170,243.226 112.339,243.833 112.046 C 244.663 111.645,245.902 110.400,245.471 110.400 C 245.347 110.400,244.740 110.861,244.122 111.424 M264.596 112.796 C 265.226 113.454,265.831 113.903,265.939 113.794 C 266.203 113.530,264.370 111.600,263.855 111.600 C 263.633 111.600,263.966 112.138,264.596 112.796 M61.400 113.790 C 60.520 114.332,59.980 114.775,60.200 114.775 C 60.420 114.775,61.320 114.332,62.200 113.790 C 63.080 113.248,63.620 112.804,63.400 112.804 C 63.180 112.804,62.280 113.248,61.400 113.790 M240.597 116.265 C 238.647 119.936,238.622 120.000,239.190 120.000 C 239.442 120.000,239.545 119.835,239.421 119.634 C 239.297 119.433,239.342 119.208,239.522 119.134 C 239.869 118.992,242.491 113.558,242.304 113.370 C 242.243 113.310,241.475 114.613,240.597 116.265 M266.400 114.559 C 266.400 114.647,266.848 115.502,267.395 116.459 C 268.590 118.550,268.729 118.214,267.592 115.984 C 266.891 114.611,266.400 114.024,266.400 114.559 M375.785 134.200 C 375.785 144.980,375.837 149.333,375.900 143.872 C 375.963 138.412,375.963 129.592,375.900 124.272 C 375.837 118.953,375.785 123.420,375.785 134.200 M343.253 116.488 C 343.613 116.781,343.997 117.375,344.107 117.810 C 344.288 118.526,344.312 118.517,344.354 117.714 C 344.383 117.162,344.061 116.664,343.500 116.392 C 342.724 116.016,342.690 116.029,343.253 116.488 M55.744 124.000 C 55.744 126.090,55.812 126.945,55.894 125.900 C 55.976 124.855,55.976 123.145,55.894 122.100 C 55.812 121.055,55.744 121.910,55.744 124.000 M344.542 134.600 C 344.541 136.580,344.608 137.440,344.692 136.512 C 344.776 135.584,344.777 133.964,344.695 132.912 C 344.612 131.860,344.543 132.620,344.542 134.600 M233.265 133.017 C 232.707 134.242,232.694 134.400,233.153 134.400 C 233.470 134.400,234.074 132.347,233.830 132.098 C 233.775 132.042,233.521 132.456,233.265 133.017 M55.344 143.600 C 55.344 145.690,55.412 146.545,55.494 145.500 C 55.576 144.455,55.576 142.745,55.494 141.700 C 55.412 140.655,55.344 141.510,55.344 143.600 M263.247 140.700 C 263.273 140.865,263.260 141.090,263.218 141.200 C 262.908 142.004,262.858 143.318,263.157 142.800 C 263.817 141.656,264.063 140.400,263.627 140.400 C 263.392 140.400,263.221 140.535,263.247 140.700 M261.433 145.457 C 261.099 146.330,261.543 146.736,262.016 145.988 C 262.489 145.240,262.499 144.800,262.043 144.800 C 261.846 144.800,261.572 145.096,261.433 145.457 M260.684 147.600 C 260.569 148.040,260.638 148.400,260.837 148.400 C 261.037 148.400,261.200 148.325,261.200 148.233 C 261.200 148.141,261.309 147.781,261.443 147.433 C 261.576 147.085,261.507 146.800,261.289 146.800 C 261.072 146.800,260.799 147.160,260.684 147.600 M259.443 150.633 C 259.067 151.611,259.149 151.708,259.800 151.057 C 260.480 150.377,260.567 150.000,260.043 150.000 C 259.846 150.000,259.576 150.285,259.443 150.633 M344.942 154.200 C 344.941 156.180,345.008 157.040,345.092 156.112 C 345.176 155.184,345.177 153.564,345.095 152.512 C 345.012 151.460,344.943 152.220,344.942 154.200 M22.235 156.781 C 20.508 159.776,19.751 161.530,20.938 159.789 C 21.908 158.364,24.473 153.600,24.269 153.600 C 24.160 153.600,23.244 155.032,22.235 156.781 M377.729 157.288 C 378.717 159.096,379.768 160.652,380.063 160.746 C 380.444 160.867,380.413 160.697,379.956 160.158 C 379.601 159.741,378.641 158.185,377.821 156.700 C 377.002 155.215,376.241 154.000,376.132 154.000 C 376.022 154.000,376.741 155.479,377.729 157.288 M223.050 158.391 C 222.147 160.647,222.287 160.983,223.237 158.842 C 223.666 157.875,223.945 157.012,223.858 156.925 C 223.771 156.838,223.408 157.498,223.050 158.391 M54.870 161.116 C 54.831 162.060,54.436 163.545,53.992 164.416 C 53.547 165.287,53.274 166.000,53.384 166.000 C 54.042 166.000,55.228 162.579,55.092 161.073 L 54.940 159.400 54.870 161.116 M255.244 161.644 C 254.998 162.351,254.866 163.000,254.952 163.085 C 255.038 163.171,255.309 162.662,255.556 161.956 C 255.802 161.249,255.934 160.600,255.848 160.515 C 255.762 160.429,255.491 160.938,255.244 161.644 M380.800 162.800 C 381.035 163.240,381.408 163.600,381.628 163.600 C 381.885 163.600,381.875 163.315,381.600 162.800 C 381.365 162.360,380.992 162.000,380.772 162.000 C 380.515 162.000,380.525 162.285,380.800 162.800 M345.245 163.409 C 345.669 164.529,348.906 170.027,349.054 169.879 C 349.148 169.785,348.389 168.289,347.368 166.554 C 345.588 163.531,344.913 162.531,345.245 163.409 M17.218 165.166 C 16.973 165.625,16.939 166.000,17.143 166.000 C 17.554 166.000,18.122 164.788,17.842 164.508 C 17.744 164.411,17.464 164.707,17.218 165.166 M382.493 165.600 C 382.768 166.040,383.135 166.400,383.310 166.400 C 383.485 166.400,383.435 166.040,383.200 165.600 C 382.965 165.160,382.597 164.800,382.383 164.800 C 382.167 164.800,382.216 165.157,382.493 165.600 M219.443 166.633 C 219.121 167.472,219.135 167.600,219.553 167.600 C 219.748 167.600,220.001 167.240,220.116 166.800 C 220.363 165.855,219.795 165.714,219.443 166.633 M15.800 167.600 C 15.459 168.260,15.325 168.800,15.503 168.800 C 15.682 168.800,16.146 168.260,16.536 167.600 C 16.926 166.940,17.060 166.400,16.833 166.400 C 16.606 166.400,16.141 166.940,15.800 167.600 M52.200 167.600 C 51.859 168.260,51.669 168.800,51.779 168.800 C 51.889 168.800,52.259 168.260,52.600 167.600 C 52.941 166.940,53.131 166.400,53.021 166.400 C 52.911 166.400,52.541 166.940,52.200 167.600 M384.019 167.800 C 384.009 168.394,384.723 169.410,384.974 169.159 C 385.094 169.040,384.929 168.595,384.609 168.171 C 384.288 167.747,384.022 167.580,384.019 167.800 M14.190 170.500 L 13.560 171.800 14.380 170.856 C 14.831 170.336,15.200 169.751,15.200 169.556 C 15.200 168.856,14.810 169.221,14.190 170.500 M50.600 170.400 C 50.259 171.060,50.069 171.600,50.179 171.600 C 50.289 171.600,50.659 171.060,51.000 170.400 C 51.341 169.740,51.531 169.200,51.421 169.200 C 51.311 169.200,50.941 169.740,50.600 170.400 M217.843 170.633 C 217.521 171.472,217.535 171.600,217.953 171.600 C 218.148 171.600,218.401 171.240,218.516 170.800 C 218.763 169.855,218.195 169.714,217.843 170.633 M385.667 170.709 C 386.170 171.878,391.418 180.715,391.538 180.596 C 391.720 180.414,386.023 170.400,385.737 170.400 C 385.625 170.400,385.593 170.539,385.667 170.709 M11.013 176.013 C 9.753 178.237,8.787 180.121,8.866 180.199 C 8.945 180.278,10.046 178.529,11.313 176.313 C 12.579 174.096,13.545 172.212,13.459 172.126 C 13.373 172.039,12.272 173.788,11.013 176.013 M217.043 172.633 C 216.721 173.472,216.735 173.600,217.153 173.600 C 217.348 173.600,217.601 173.240,217.716 172.800 C 217.963 171.855,217.395 171.714,217.043 172.633 M216.279 174.557 C 216.115 174.974,216.075 175.409,216.191 175.524 C 216.555 175.889,216.876 175.291,216.724 174.531 C 216.583 173.835,216.562 173.836,216.279 174.557 M352.818 176.834 C 353.064 177.293,353.344 177.589,353.442 177.492 C 353.722 177.212,353.154 176.000,352.743 176.000 C 352.539 176.000,352.573 176.375,352.818 176.834 M355.151 181.100 C 356.155 183.064,359.504 188.720,360.022 189.326 C 360.245 189.587,360.705 190.160,361.045 190.600 C 361.385 191.040,361.081 190.320,360.369 189.000 C 359.658 187.680,358.855 186.330,358.585 186.000 C 358.315 185.670,357.971 184.995,357.820 184.500 C 357.670 184.005,357.398 183.600,357.216 183.600 C 357.035 183.600,356.774 183.150,356.636 182.600 C 356.498 182.050,356.198 181.600,355.969 181.600 C 355.740 181.600,355.664 181.420,355.800 181.200 C 355.936 180.980,355.857 180.800,355.624 180.800 C 355.391 180.800,355.200 180.530,355.200 180.200 C 355.200 179.870,355.016 179.600,354.792 179.600 C 354.567 179.600,354.729 180.275,355.151 181.100 M247.900 180.483 C 247.791 180.767,247.671 181.132,247.634 181.293 C 247.596 181.454,247.293 182.238,246.959 183.036 C 246.626 183.834,246.427 184.561,246.518 184.651 C 246.609 184.742,247.073 183.796,247.550 182.550 C 248.027 181.304,248.346 180.212,248.258 180.125 C 248.170 180.037,248.010 180.198,247.900 180.483 M44.293 181.308 C 43.912 181.778,43.600 182.396,43.600 182.681 C 43.600 182.967,43.438 183.200,43.239 183.200 C 43.041 183.200,42.678 183.695,42.434 184.300 C 42.190 184.905,41.616 185.985,41.158 186.700 C 40.701 187.415,40.501 188.000,40.713 188.000 C 40.926 188.000,42.042 186.369,43.192 184.375 C 45.238 180.831,45.680 179.599,44.293 181.308 M393.800 185.200 C 394.141 185.860,394.511 186.400,394.621 186.400 C 394.731 186.400,394.541 185.860,394.200 185.200 C 393.859 184.540,393.489 184.000,393.379 184.000 C 393.269 184.000,393.459 184.540,393.800 185.200 M5.400 186.400 C 5.059 187.060,4.869 187.600,4.979 187.600 C 5.089 187.600,5.459 187.060,5.800 186.400 C 6.141 185.740,6.331 185.200,6.221 185.200 C 6.111 185.200,5.741 185.740,5.400 186.400 M244.806 188.100 C 244.811 188.828,244.886 188.885,245.200 188.400 C 245.701 187.624,245.701 187.200,245.200 187.200 C 244.980 187.200,244.803 187.605,244.806 188.100 M396.885 190.985 C 397.808 192.847,398.628 194.305,398.707 194.226 C 398.885 194.049,395.665 187.600,395.398 187.600 C 395.293 187.600,395.961 189.123,396.885 190.985 M39.375 189.700 L 38.729 191.000 39.765 189.838 C 40.910 188.552,40.978 188.400,40.410 188.400 C 40.196 188.400,39.730 188.985,39.375 189.700 M1.780 193.240 C 1.211 194.362,0.813 195.347,0.895 195.429 C 0.977 195.511,1.527 194.593,2.118 193.389 C 2.708 192.185,3.106 191.200,3.002 191.200 C 2.898 191.200,2.348 192.118,1.780 193.240 M398.863 195.000 C 398.862 195.220,399.103 196.030,399.400 196.800 C 399.697 197.570,399.945 197.930,399.952 197.600 C 399.958 197.270,399.717 196.460,399.414 195.800 C 399.112 195.140,398.864 194.780,398.863 195.000 M397.082 209.811 C 396.492 211.015,396.094 212.000,396.198 212.000 C 396.467 212.000,398.484 207.951,398.305 207.771 C 398.223 207.689,397.673 208.607,397.082 209.811 M2.000 208.149 C 2.000 208.581,3.589 211.600,3.816 211.600 C 3.926 211.600,3.630 210.835,3.159 209.900 C 2.232 208.061,2.000 207.711,2.000 208.149 M361.019 210.364 C 360.688 211.004,360.268 211.589,360.085 211.664 C 359.169 212.040,355.300 219.600,356.024 219.600 C 356.257 219.600,356.336 219.420,356.200 219.200 C 356.064 218.980,356.131 218.800,356.349 218.800 C 356.568 218.800,356.872 218.395,357.027 217.900 C 357.181 217.405,357.428 216.910,357.576 216.800 C 357.796 216.635,358.763 214.995,361.877 209.500 C 361.971 209.335,361.951 209.200,361.834 209.200 C 361.717 209.200,361.350 209.724,361.019 210.364 M38.991 210.700 C 39.337 211.415,39.803 212.000,40.026 212.000 C 40.287 212.000,40.279 211.822,40.002 211.500 C 39.766 211.225,39.300 210.640,38.967 210.200 C 38.458 209.527,38.461 209.607,38.991 210.700 M41.077 214.400 C 41.695 215.499,42.346 216.399,42.524 216.400 C 42.702 216.400,42.736 216.580,42.600 216.800 C 42.464 217.020,42.524 217.200,42.733 217.200 C 42.942 217.200,43.226 217.650,43.364 218.200 C 43.502 218.750,43.802 219.200,44.031 219.200 C 44.260 219.200,44.336 219.380,44.200 219.600 C 44.064 219.820,44.143 220.000,44.376 220.000 C 44.609 220.000,44.800 220.270,44.800 220.600 C 44.800 220.930,44.985 221.200,45.210 221.200 C 45.669 221.200,45.126 220.055,42.510 215.500 C 41.531 213.795,40.555 212.400,40.342 212.400 C 40.128 212.400,40.459 213.300,41.077 214.400 M200.100 215.023 C 199.825 215.322,199.600 215.833,199.600 216.160 C 199.600 216.486,199.408 216.872,199.173 217.017 C 198.938 217.162,198.837 217.520,198.949 217.811 C 199.061 218.103,198.893 218.557,198.576 218.820 C 197.927 219.358,197.776 220.586,198.407 220.196 C 198.630 220.058,198.709 219.777,198.583 219.572 C 198.456 219.368,198.518 219.200,198.720 219.200 C 199.037 219.200,200.913 214.767,200.684 214.558 C 200.638 214.515,200.375 214.725,200.100 215.023 M8.001 219.600 C 9.402 222.405,14.530 231.204,14.677 231.056 C 14.854 230.879,8.559 219.708,7.884 219.000 C 7.674 218.780,7.727 219.050,8.001 219.600 M388.670 225.070 C 387.209 227.642,386.080 229.813,386.161 229.894 C 386.242 229.976,387.513 227.946,388.984 225.384 C 390.455 222.822,391.584 220.651,391.493 220.560 C 391.402 220.469,390.132 222.498,388.670 225.070 M194.643 228.233 C 194.321 229.072,194.335 229.200,194.753 229.200 C 194.948 229.200,195.201 228.840,195.316 228.400 C 195.563 227.455,194.995 227.314,194.643 228.233 M350.186 228.900 L 349.552 230.200 350.367 229.200 C 351.152 228.237,351.408 227.600,351.010 227.600 C 350.906 227.600,350.535 228.185,350.186 228.900 M50.200 230.000 C 50.541 230.660,50.911 231.200,51.021 231.200 C 51.131 231.200,50.941 230.660,50.600 230.000 C 50.259 229.340,49.889 228.800,49.779 228.800 C 49.669 228.800,49.859 229.340,50.200 230.000 M193.879 230.157 C 193.715 230.574,193.675 231.009,193.791 231.124 C 194.155 231.489,194.476 230.891,194.324 230.131 C 194.183 229.435,194.162 229.436,193.879 230.157 M347.253 233.983 C 346.124 235.969,345.202 237.730,345.204 237.897 C 345.207 238.064,346.200 236.509,347.412 234.441 C 348.624 232.374,349.546 230.613,349.461 230.528 C 349.376 230.442,348.382 231.997,347.253 233.983 M384.955 231.412 C 384.590 231.969,384.393 232.526,384.516 232.650 C 384.640 232.773,385.029 232.318,385.381 231.637 C 386.152 230.146,385.879 230.002,384.955 231.412 M144.900 231.491 C 145.725 231.578,147.075 231.578,147.900 231.491 C 148.725 231.405,148.050 231.334,146.400 231.334 C 144.750 231.334,144.075 231.405,144.900 231.491 M15.218 232.434 C 15.464 232.893,15.744 233.189,15.842 233.092 C 16.122 232.812,15.554 231.600,15.143 231.600 C 14.939 231.600,14.973 231.975,15.218 232.434 M51.799 232.799 C 52.140 233.458,52.944 234.888,53.587 235.978 C 54.308 237.201,54.812 238.693,54.905 239.879 L 55.056 241.800 55.128 239.881 C 55.189 238.260,54.916 237.471,53.365 234.781 C 51.582 231.690,50.551 230.384,51.799 232.799 M138.371 232.791 C 136.899 233.569,135.615 234.800,136.276 234.800 C 136.481 234.800,137.046 234.430,137.532 233.978 C 138.017 233.525,138.996 232.902,139.707 232.593 C 140.418 232.284,140.730 232.032,140.400 232.033 C 140.070 232.034,139.157 232.375,138.371 232.791 M155.200 233.943 C 155.200 234.354,156.412 234.922,156.692 234.642 C 156.789 234.544,156.493 234.264,156.034 234.018 C 155.575 233.773,155.200 233.739,155.200 233.943 M383.033 234.657 C 382.652 235.650,383.072 235.786,383.582 234.834 C 383.827 234.375,383.861 234.000,383.657 234.000 C 383.453 234.000,383.172 234.296,383.033 234.657 M134.132 236.500 C 132.311 238.530,131.594 240.000,132.424 240.000 C 132.657 240.000,132.736 239.820,132.600 239.600 C 132.464 239.380,132.543 239.200,132.776 239.200 C 133.009 239.200,133.200 238.930,133.200 238.600 C 133.200 238.270,133.375 238.000,133.590 238.000 C 133.804 238.000,134.259 237.460,134.600 236.800 C 135.341 235.367,135.219 235.289,134.132 236.500 M190.857 237.644 C 190.386 238.778,190.008 239.908,190.017 240.153 C 190.026 240.399,190.476 239.535,191.017 238.233 C 191.557 236.931,191.935 235.802,191.857 235.724 C 191.779 235.645,191.329 236.509,190.857 237.644 M159.258 236.375 C 159.347 236.642,159.596 236.859,159.810 236.858 C 160.025 236.858,160.346 237.118,160.525 237.437 C 160.703 237.756,161.018 237.912,161.225 237.785 C 161.431 237.657,161.600 237.743,161.600 237.976 C 161.600 238.209,161.855 238.400,162.167 238.400 C 162.478 238.400,162.793 238.542,162.867 238.714 C 163.022 239.080,165.409 240.800,165.762 240.800 C 166.390 240.800,165.883 240.075,164.900 239.568 C 164.295 239.255,163.489 238.720,163.109 238.379 C 161.971 237.356,159.085 235.854,159.258 236.375 M381.293 237.600 C 381.016 238.043,380.967 238.400,381.183 238.400 C 381.397 238.400,381.765 238.040,382.000 237.600 C 382.235 237.160,382.285 236.800,382.110 236.800 C 381.935 236.800,381.568 237.160,381.293 237.600 M378.048 243.268 C 376.923 245.285,376.058 246.992,376.126 247.060 C 376.194 247.128,377.031 245.792,377.986 244.092 C 378.940 242.391,379.992 240.685,380.323 240.300 C 380.653 239.915,380.737 239.600,380.509 239.600 C 380.280 239.600,379.173 241.251,378.048 243.268 M21.643 243.271 C 24.118 247.390,24.612 247.869,22.600 244.200 C 20.566 240.491,20.256 240.000,19.942 240.000 C 19.796 240.000,20.561 241.472,21.643 243.271 M223.953 240.233 C 223.927 240.435,223.927 240.735,223.953 240.900 C 223.979 241.065,223.820 241.200,223.600 241.200 C 223.380 241.200,223.238 241.335,223.285 241.500 C 223.332 241.665,223.151 242.194,222.884 242.676 C 222.617 243.157,222.555 243.649,222.748 243.768 C 223.154 244.019,224.604 240.471,224.242 240.109 C 224.109 239.976,223.979 240.032,223.953 240.233 M168.638 242.721 C 171.827 244.774,172.000 244.874,172.000 244.671 C 172.000 244.415,167.007 241.200,166.610 241.200 C 166.426 241.200,167.339 241.884,168.638 242.721 M344.942 246.600 C 344.941 248.580,345.008 249.440,345.092 248.512 C 345.176 247.584,345.177 245.964,345.095 244.912 C 345.012 243.860,344.943 244.620,344.942 246.600 M221.833 245.057 C 221.499 245.930,221.943 246.336,222.416 245.588 C 222.889 244.840,222.899 244.400,222.443 244.400 C 222.246 244.400,221.972 244.696,221.833 245.057 M221.033 247.057 C 220.699 247.930,221.143 248.336,221.616 247.588 C 222.089 246.840,222.099 246.400,221.643 246.400 C 221.446 246.400,221.172 246.696,221.033 247.057 M375.785 267.000 C 375.785 277.780,375.837 282.133,375.900 276.672 C 375.963 271.212,375.963 262.392,375.900 257.072 C 375.837 251.753,375.785 256.220,375.785 267.000 M220.233 249.057 C 219.899 249.930,220.343 250.336,220.816 249.588 C 221.289 248.840,221.299 248.400,220.843 248.400 C 220.646 248.400,220.372 248.696,220.233 249.057 M181.885 251.208 C 184.816 253.086,184.933 253.104,185.536 251.781 C 186.198 250.329,186.081 249.992,185.370 251.303 C 184.711 252.516,184.367 252.440,181.400 250.422 C 180.740 249.973,180.020 249.608,179.800 249.611 C 179.580 249.614,180.518 250.333,181.885 251.208 M55.344 257.600 C 55.344 259.690,55.412 260.545,55.494 259.500 C 55.576 258.455,55.576 256.745,55.494 255.700 C 55.412 254.655,55.344 255.510,55.344 257.600 M132.400 254.322 C 132.400 254.733,135.142 257.403,135.327 257.173 C 135.404 257.078,134.777 256.325,133.933 255.500 C 133.090 254.675,132.400 254.145,132.400 254.322 M136.000 257.752 C 136.000 257.836,136.990 258.651,138.200 259.565 C 139.410 260.478,140.400 261.079,140.400 260.898 C 140.400 260.718,139.505 259.902,138.410 259.085 C 136.541 257.690,136.000 257.390,136.000 257.752 M344.544 266.400 C 344.544 268.490,344.612 269.345,344.694 268.300 C 344.776 267.255,344.776 265.545,344.694 264.500 C 344.612 263.455,344.544 264.310,344.544 266.400 M144.584 264.197 C 145.236 264.729,145.863 265.070,145.978 264.955 C 146.232 264.701,144.364 263.216,143.800 263.223 C 143.580 263.226,143.933 263.664,144.584 264.197 M147.600 266.190 C 147.600 266.439,154.684 271.200,155.056 271.200 C 155.213 271.200,154.005 270.283,152.371 269.161 C 150.737 268.040,149.116 266.870,148.769 266.561 C 148.139 266.001,147.600 265.830,147.600 266.190 M155.600 271.743 C 155.600 272.017,160.076 274.857,160.244 274.690 C 160.336 274.597,159.422 273.864,158.212 273.061 C 156.131 271.679,155.600 271.411,155.600 271.743 M55.744 277.200 C 55.744 279.290,55.812 280.145,55.894 279.100 C 55.976 278.055,55.976 276.345,55.894 275.300 C 55.812 274.255,55.744 275.110,55.744 277.200 M163.200 276.501 C 163.200 276.676,164.005 277.241,167.300 279.378 C 167.905 279.771,168.400 280.005,168.400 279.899 C 168.400 279.724,167.595 279.159,164.300 277.022 C 163.695 276.629,163.200 276.395,163.200 276.501 M170.402 281.500 C 170.404 281.818,179.284 287.600,179.771 287.600 C 179.928 287.600,179.787 287.330,179.457 287.000 C 179.127 286.670,178.664 286.400,178.429 286.400 C 178.193 286.400,178.000 286.220,178.000 286.000 C 178.000 285.780,177.730 285.600,177.400 285.600 C 177.070 285.600,176.800 285.420,176.800 285.200 C 176.800 284.980,176.545 284.800,176.233 284.800 C 175.922 284.800,175.607 284.665,175.533 284.500 C 175.342 284.069,172.094 282.000,171.609 282.000 C 171.384 282.000,171.200 281.820,171.200 281.600 C 171.200 281.380,171.020 281.200,170.800 281.200 C 170.580 281.200,170.401 281.335,170.402 281.500 M205.595 283.613 C 204.921 285.239,205.377 285.591,206.171 284.057 C 206.893 282.659,206.937 282.400,206.449 282.400 C 206.255 282.400,205.871 282.946,205.595 283.613 M204.075 286.784 C 203.136 288.055,202.954 288.599,203.603 288.198 C 204.003 287.951,205.344 285.600,205.085 285.600 C 205.011 285.600,204.557 286.133,204.075 286.784 M59.600 286.190 C 59.600 286.424,61.839 287.601,62.280 287.599 C 62.456 287.598,62.011 287.238,61.290 286.799 C 59.951 285.982,59.600 285.856,59.600 286.190 M336.467 288.187 C 334.853 289.147,333.413 290.067,333.267 290.230 C 332.936 290.598,339.255 287.214,339.780 286.742 C 340.713 285.902,339.181 286.571,336.467 288.187 M62.833 288.149 C 63.245 288.517,65.600 289.600,65.600 289.421 C 65.600 289.190,63.382 288.000,62.953 288.000 C 62.796 288.000,62.742 288.067,62.833 288.149 M24.514 290.200 C 24.517 291.300,24.595 291.703,24.687 291.095 C 24.779 290.486,24.777 289.586,24.682 289.095 C 24.587 288.603,24.511 289.100,24.514 290.200 M201.354 289.668 C 199.606 290.984,199.392 291.200,199.835 291.200 C 200.267 291.200,203.154 288.843,202.754 288.816 C 202.619 288.807,201.989 289.191,201.354 289.668 M66.000 289.779 C 66.000 289.889,66.540 290.259,67.200 290.600 C 67.860 290.941,68.400 291.131,68.400 291.021 C 68.400 290.911,67.860 290.541,67.200 290.200 C 66.540 289.859,66.000 289.669,66.000 289.779 M331.500 291.029 C 330.005 291.840,330.096 292.178,331.600 291.400 C 332.260 291.059,332.800 290.694,332.800 290.590 C 332.800 290.332,332.757 290.347,331.500 291.029 M69.600 291.967 C 70.563 292.752,71.200 293.008,71.200 292.610 C 71.200 292.506,70.615 292.135,69.900 291.786 L 68.600 291.152 69.600 291.967 M328.700 292.629 C 328.095 292.957,327.600 293.310,327.600 293.413 C 327.600 293.799,328.232 293.557,329.200 292.800 C 330.389 291.870,330.211 291.809,328.700 292.629 M72.400 293.543 C 72.400 293.954,73.612 294.522,73.892 294.242 C 73.989 294.144,73.693 293.864,73.234 293.618 C 72.775 293.373,72.400 293.339,72.400 293.543 M325.371 294.591 C 324.947 294.912,324.780 295.178,325.000 295.181 C 325.594 295.191,326.610 294.477,326.359 294.226 C 326.240 294.106,325.795 294.271,325.371 294.591 M75.200 295.143 C 75.200 295.554,76.412 296.122,76.692 295.842 C 76.789 295.744,76.493 295.464,76.034 295.218 C 75.575 294.973,75.200 294.939,75.200 295.143 M80.000 297.957 C 80.000 298.310,80.666 298.682,81.355 298.715 C 81.551 298.724,81.821 298.905,81.955 299.117 C 82.090 299.329,83.640 300.350,85.400 301.386 C 87.160 302.422,89.185 303.628,89.900 304.067 C 90.615 304.506,91.200 304.774,91.200 304.663 C 91.200 304.551,89.805 303.616,88.100 302.584 C 86.395 301.552,84.940 300.549,84.867 300.354 C 84.793 300.159,84.493 300.000,84.200 300.000 C 83.907 300.000,83.607 299.857,83.533 299.683 C 83.186 298.857,80.000 297.301,80.000 297.957 M317.043 299.198 C 316.406 299.605,315.776 300.099,315.643 300.295 C 315.509 300.492,313.825 301.598,311.900 302.753 C 309.975 303.908,308.400 304.952,308.400 305.073 C 308.400 305.193,308.805 305.034,309.300 304.718 C 309.795 304.403,311.820 303.179,313.800 301.998 C 315.780 300.818,317.510 299.690,317.645 299.492 C 317.779 299.294,318.045 299.161,318.235 299.196 C 318.425 299.231,318.645 299.067,318.723 298.830 C 318.926 298.222,318.384 298.341,317.043 299.198 M372.581 302.028 C 371.894 303.019,370.037 304.581,367.827 306.028 C 363.581 308.806,363.596 309.233,367.847 306.584 C 370.488 304.938,374.000 301.604,374.000 300.744 C 374.000 300.127,373.726 300.375,372.581 302.028 M26.400 301.053 C 26.400 302.416,38.649 311.484,39.433 310.701 C 39.521 310.613,37.363 309.163,34.637 307.478 C 31.645 305.629,29.031 303.677,28.041 302.551 C 27.138 301.526,26.400 300.852,26.400 301.053 M305.479 307.300 C 304.394 308.768,303.662 310.032,304.263 309.400 C 305.005 308.620,306.838 306.000,306.641 306.000 C 306.531 306.000,306.008 306.585,305.479 307.300 M94.749 307.800 C 94.965 308.240,95.434 308.960,95.793 309.400 L 96.444 310.200 96.051 309.400 C 95.835 308.960,95.366 308.240,95.007 307.800 L 94.356 307.000 94.749 307.800 M301.972 312.800 C 301.057 314.340,300.149 315.600,299.954 315.600 C 299.759 315.600,299.600 315.797,299.600 316.037 C 299.600 316.277,299.240 316.931,298.800 317.491 C 297.963 318.556,297.781 319.200,298.317 319.200 C 298.492 319.200,299.602 317.535,300.784 315.500 C 301.965 313.465,303.193 311.395,303.512 310.900 C 303.831 310.405,303.989 310.000,303.864 310.000 C 303.738 310.000,302.887 311.260,301.972 312.800 M97.390 312.100 C 97.959 313.035,98.914 314.655,99.512 315.700 C 100.111 316.744,100.735 317.599,100.900 317.600 C 101.436 317.600,101.217 316.817,100.474 316.074 C 100.074 315.674,99.071 314.234,98.245 312.874 C 97.418 311.513,96.655 310.400,96.548 310.400 C 96.442 310.400,96.820 311.165,97.390 312.100 M47.600 315.379 C 47.600 315.489,48.140 315.859,48.800 316.200 C 49.460 316.541,50.000 316.731,50.000 316.621 C 50.000 316.511,49.460 316.141,48.800 315.800 C 48.140 315.459,47.600 315.269,47.600 315.379 M50.400 316.957 C 50.400 317.069,51.576 317.818,53.013 318.622 C 54.451 319.426,55.846 320.297,56.113 320.557 C 57.535 321.939,60.000 323.093,60.000 322.376 C 60.000 322.143,59.839 322.052,59.642 322.174 C 59.445 322.296,59.176 322.115,59.045 321.772 C 58.913 321.430,58.640 321.252,58.437 321.377 C 58.234 321.502,58.008 321.461,57.934 321.284 C 57.824 321.021,56.143 320.007,50.700 316.923 C 50.535 316.829,50.400 316.845,50.400 316.957 M345.000 319.456 C 342.800 320.690,340.940 321.857,340.867 322.050 C 340.793 322.242,340.478 322.400,340.167 322.400 C 339.855 322.400,339.600 322.580,339.600 322.800 C 339.600 323.447,342.461 322.096,343.400 321.006 C 343.620 320.751,345.015 319.864,346.500 319.036 C 347.985 318.208,349.200 317.457,349.200 317.366 C 349.200 317.101,349.190 317.106,345.000 319.456 M101.293 318.800 C 101.568 319.240,101.940 319.600,102.120 319.600 C 102.300 319.600,102.344 319.768,102.217 319.972 C 101.975 320.363,102.718 321.015,103.039 320.694 C 103.359 320.374,101.826 318.005,101.297 318.003 C 100.893 318.001,100.893 318.159,101.293 318.800 M64.571 325.409 C 64.995 325.729,65.440 325.894,65.559 325.774 C 65.810 325.523,64.794 324.809,64.200 324.819 C 63.980 324.822,64.147 325.088,64.571 325.409 M105.219 325.000 C 105.209 325.594,105.923 326.610,106.174 326.359 C 106.294 326.240,106.129 325.795,105.809 325.371 C 105.488 324.947,105.222 324.780,105.219 325.000 M294.018 325.966 C 293.773 326.425,293.739 326.800,293.943 326.800 C 294.354 326.800,294.922 325.588,294.642 325.308 C 294.544 325.211,294.264 325.507,294.018 325.966 M292.590 328.500 L 291.960 329.800 292.780 328.856 C 293.231 328.336,293.600 327.751,293.600 327.556 C 293.600 326.856,293.210 327.221,292.590 328.500 M106.809 327.900 C 106.814 328.065,107.185 328.650,107.633 329.200 L 108.448 330.200 107.814 328.900 C 107.211 327.665,106.789 327.245,106.809 327.900 M69.600 328.115 C 69.600 328.189,70.140 328.649,70.800 329.137 C 71.460 329.625,72.000 329.843,72.000 329.622 C 72.000 329.401,71.460 328.941,70.800 328.600 C 70.140 328.259,69.600 328.040,69.600 328.115 M288.614 335.414 C 286.913 338.406,285.586 340.919,285.665 340.998 C 285.744 341.077,287.205 338.698,288.912 335.712 C 290.618 332.725,291.946 330.212,291.861 330.128 C 291.776 330.043,290.315 332.422,288.614 335.414 M327.414 331.035 C 327.041 331.604,326.827 332.161,326.939 332.272 C 327.050 332.383,327.429 331.918,327.781 331.237 C 328.559 329.733,328.344 329.615,327.414 331.035 M72.590 331.500 C 73.210 332.779,73.600 333.144,73.600 332.444 C 73.600 332.249,73.231 331.664,72.780 331.144 L 71.960 330.200 72.590 331.500 M108.467 330.704 C 109.038 332.005,114.174 340.759,114.295 340.638 C 114.474 340.460,108.797 330.400,108.518 330.400 C 108.417 330.400,108.393 330.537,108.467 330.704 M325.433 334.257 C 325.052 335.250,325.472 335.386,325.982 334.434 C 326.227 333.975,326.261 333.600,326.057 333.600 C 325.853 333.600,325.572 333.896,325.433 334.257 M74.418 334.834 C 74.664 335.293,74.944 335.589,75.042 335.492 C 75.322 335.212,74.754 334.000,74.343 334.000 C 74.139 334.000,74.173 334.375,74.418 334.834 M323.833 337.057 C 323.452 338.050,323.872 338.186,324.382 337.234 C 324.627 336.775,324.661 336.400,324.457 336.400 C 324.253 336.400,323.972 336.696,323.833 337.057 M322.179 339.900 C 322.011 340.285,321.902 340.735,321.936 340.900 C 321.971 341.065,321.790 341.200,321.533 341.200 C 321.277 341.200,321.172 341.305,321.300 341.434 C 321.429 341.562,321.253 341.996,320.910 342.396 C 320.094 343.350,317.073 348.800,317.361 348.800 C 317.484 348.800,317.930 348.125,318.353 347.300 C 318.776 346.475,319.518 345.350,320.001 344.800 C 321.131 343.515,323.325 339.200,322.849 339.200 C 322.649 339.200,322.348 339.515,322.179 339.900 M78.000 341.140 C 78.000 341.327,78.529 342.210,79.176 343.103 C 79.822 343.996,80.919 345.733,81.614 346.963 C 82.308 348.193,82.956 349.200,83.052 349.200 C 83.427 349.200,79.217 341.860,78.730 341.666 C 78.546 341.592,78.497 341.367,78.621 341.166 C 78.745 340.965,78.657 340.800,78.424 340.800 C 78.191 340.800,78.000 340.953,78.000 341.140 M129.500 345.093 C 130.435 345.177,131.965 345.177,132.900 345.093 C 133.835 345.009,133.070 344.940,131.200 344.940 C 129.330 344.940,128.565 345.009,129.500 345.093 M266.912 345.095 C 267.964 345.177,269.584 345.176,270.512 345.092 C 271.440 345.008,270.580 344.941,268.600 344.942 C 266.620 344.943,265.860 345.012,266.912 345.095 M149.100 345.493 C 150.035 345.577,151.565 345.577,152.500 345.493 C 153.435 345.409,152.670 345.340,150.800 345.340 C 148.930 345.340,148.165 345.409,149.100 345.493 M247.312 345.495 C 248.364 345.577,249.984 345.576,250.912 345.492 C 251.840 345.408,250.980 345.341,249.000 345.342 C 247.020 345.343,246.260 345.412,247.312 345.495 M162.433 345.741 C 162.980 346.204,168.000 348.831,168.000 348.654 C 168.000 348.393,163.057 345.600,162.595 345.600 C 162.414 345.600,162.342 345.664,162.433 345.741 M234.117 347.334 C 230.319 349.572,229.845 350.148,233.400 348.205 C 236.644 346.433,237.939 345.593,237.389 345.618 C 237.175 345.628,235.703 346.400,234.117 347.334 M316.200 350.400 C 315.859 351.060,315.669 351.600,315.779 351.600 C 315.889 351.600,316.259 351.060,316.600 350.400 C 316.941 349.740,317.131 349.200,317.021 349.200 C 316.911 349.200,316.541 349.740,316.200 350.400 M229.100 350.229 C 227.605 351.040,227.696 351.378,229.200 350.600 C 229.860 350.259,230.400 349.894,230.400 349.790 C 230.400 349.532,230.357 349.547,229.100 350.229 M222.971 353.791 C 222.547 354.112,222.380 354.378,222.600 354.381 C 223.194 354.391,224.210 353.677,223.959 353.426 C 223.840 353.306,223.395 353.471,222.971 353.791 M177.600 354.343 C 177.600 354.754,178.812 355.322,179.092 355.042 C 179.189 354.944,178.893 354.664,178.434 354.418 C 177.975 354.173,177.600 354.139,177.600 354.343 M179.600 355.624 C 179.600 355.857,179.780 355.936,180.000 355.800 C 180.220 355.664,180.400 355.743,180.400 355.976 C 180.400 356.209,180.670 356.400,181.000 356.400 C 181.330 356.400,181.600 356.610,181.600 356.867 C 181.600 357.123,181.711 357.222,181.848 357.086 C 181.984 356.950,182.357 357.100,182.676 357.419 C 183.298 358.041,184.004 358.192,183.994 357.700 C 183.981 356.999,179.600 354.929,179.600 355.624 M218.500 356.088 C 217.580 356.532,217.280 357.200,218.000 357.200 C 218.220 357.200,218.400 357.009,218.400 356.776 C 218.400 356.543,218.580 356.464,218.800 356.600 C 219.020 356.736,219.200 356.646,219.200 356.400 C 219.200 356.154,219.380 356.064,219.600 356.200 C 219.820 356.336,220.000 356.257,220.000 356.024 C 220.000 355.508,219.674 355.522,218.500 356.088 M214.167 358.708 C 210.220 361.128,208.800 362.068,208.800 362.259 C 208.800 362.481,214.122 359.552,214.400 359.177 C 214.510 359.029,215.005 358.781,215.500 358.627 C 215.995 358.472,216.400 358.168,216.400 357.949 C 216.400 357.731,216.580 357.664,216.800 357.800 C 217.020 357.936,217.200 357.857,217.200 357.624 C 217.200 356.958,216.768 357.113,214.167 358.708 M184.602 358.403 C 184.991 359.032,187.200 360.068,187.200 359.621 C 187.200 359.401,186.669 358.946,186.020 358.610 C 184.644 357.899,184.255 357.842,184.602 358.403 M187.600 359.976 C 187.600 360.198,188.185 360.682,188.900 361.052 C 190.125 361.685,190.167 361.684,189.633 361.040 C 188.864 360.113,187.600 359.451,187.600 359.976 M89.593 360.800 C 90.598 362.804,94.900 369.633,95.058 369.476 C 95.147 369.387,93.957 367.280,92.414 364.794 C 89.610 360.278,88.648 358.916,89.593 360.800 M308.816 363.117 C 305.610 368.535,303.080 372.019,301.516 373.169 C 300.596 373.846,300.033 374.400,300.265 374.400 C 301.774 374.400,311.194 361.861,310.332 360.999 C 310.241 360.908,309.559 361.861,308.816 363.117 M190.400 361.779 C 190.400 361.889,190.940 362.259,191.600 362.600 C 192.260 362.941,192.800 363.131,192.800 363.021 C 192.800 362.911,192.260 362.541,191.600 362.200 C 190.940 361.859,190.400 361.669,190.400 361.779 M207.100 363.029 C 205.605 363.840,205.696 364.178,207.200 363.400 C 207.860 363.059,208.400 362.694,208.400 362.590 C 208.400 362.332,208.357 362.347,207.100 363.029 M200.600 366.614 C 199.940 366.917,199.681 367.172,200.024 367.182 C 200.366 367.192,200.996 366.936,201.424 366.613 C 202.372 365.896,202.169 365.896,200.600 366.614 M95.875 371.059 C 96.625 372.203,99.445 374.401,100.160 374.399 C 100.402 374.398,100.060 374.068,99.400 373.665 C 98.740 373.263,97.620 372.273,96.912 371.467 C 95.406 369.752,94.884 369.546,95.875 371.059 M114.700 376.295 C 115.855 376.376,117.745 376.376,118.900 376.295 C 120.055 376.214,119.110 376.148,116.800 376.148 C 114.490 376.148,113.545 376.214,114.700 376.295 M281.315 376.296 C 282.588 376.376,284.568 376.375,285.715 376.294 C 286.862 376.214,285.820 376.149,283.400 376.150 C 280.980 376.151,280.042 376.216,281.315 376.296 M156.539 378.430 C 158.486 379.544,160.148 380.385,160.234 380.300 C 160.414 380.119,153.826 376.399,153.332 376.402 C 153.149 376.403,154.593 377.316,156.539 378.430 M243.083 378.289 C 241.369 379.285,240.039 380.173,240.129 380.262 C 240.263 380.396,246.209 377.075,246.767 376.555 C 247.398 375.967,245.725 376.755,243.083 378.289 M164.171 383.009 C 164.595 383.329,165.040 383.494,165.159 383.374 C 165.410 383.123,164.394 382.409,163.800 382.419 C 163.580 382.422,163.747 382.688,164.171 383.009 M234.012 383.584 C 233.688 383.789,233.521 384.054,233.641 384.174 C 233.760 384.294,234.205 384.129,234.629 383.809 C 235.473 383.171,234.960 382.985,234.012 383.584 M166.971 384.609 C 167.395 384.929,167.840 385.094,167.959 384.974 C 168.210 384.723,167.194 384.009,166.600 384.019 C 166.380 384.022,166.547 384.288,166.971 384.609 M168.400 385.354 C 168.400 385.609,179.242 391.691,179.406 391.528 C 179.489 391.444,177.857 390.420,175.779 389.251 C 173.701 388.082,171.363 386.692,170.583 386.163 C 169.292 385.286,168.400 384.956,168.400 385.354 M228.744 386.820 L 227.800 387.640 229.100 387.010 C 230.379 386.390,230.744 386.000,230.044 386.000 C 229.849 386.000,229.264 386.369,228.744 386.820 M223.510 389.713 C 221.590 390.835,220.087 391.820,220.169 391.902 C 220.331 392.064,227.600 388.008,227.600 387.755 C 227.600 387.404,226.831 387.772,223.510 389.713 M186.400 395.384 C 186.400 395.494,187.120 395.951,188.000 396.400 C 188.880 396.849,189.600 397.126,189.600 397.016 C 189.600 396.906,188.880 396.449,188.000 396.000 C 187.120 395.551,186.400 395.274,186.400 395.384 M208.800 397.800 C 207.370 398.549,206.340 399.170,206.511 399.181 C 206.937 399.207,211.600 396.837,211.600 396.594 C 211.600 396.325,211.694 396.285,208.800 397.800 M193.200 399.000 C 193.750 399.314,194.380 399.572,194.600 399.572 C 194.820 399.572,194.550 399.314,194.000 399.000 C 193.450 398.686,192.820 398.428,192.600 398.428 C 192.380 398.428,192.650 398.686,193.200 399.000 M199.300 400.676 C 199.685 400.776,200.315 400.776,200.700 400.676 C 201.085 400.575,200.770 400.493,200.000 400.493 C 199.230 400.493,198.915 400.575,199.300 400.676 " stroke="none" fill="#c8c8c8" fill-rule="evenodd"></path><path id="path2" d="M190.300 3.829 C 188.805 4.640,188.896 4.978,190.400 4.200 C 191.060 3.859,191.600 3.494,191.600 3.390 C 191.600 3.132,191.557 3.147,190.300 3.829 M211.600 4.984 C 211.600 5.094,212.320 5.551,213.200 6.000 C 214.080 6.449,214.800 6.726,214.800 6.616 C 214.800 6.506,214.080 6.049,213.200 5.600 C 212.320 5.151,211.600 4.874,211.600 4.984 M182.800 8.036 C 182.136 8.579,182.069 8.715,182.600 8.440 C 183.905 7.766,184.628 7.212,184.200 7.215 C 183.980 7.217,183.350 7.586,182.800 8.036 M246.344 24.904 C 246.511 25.072,254.648 25.161,264.424 25.104 L 282.200 25.000 264.120 24.800 C 254.176 24.690,246.177 24.737,246.344 24.904 M127.100 25.100 C 131.995 25.163,140.005 25.163,144.900 25.100 C 149.795 25.036,145.790 24.984,136.000 24.984 C 126.210 24.984,122.205 25.036,127.100 25.100 M111.507 25.490 C 112.226 25.579,113.306 25.577,113.907 25.486 C 114.508 25.395,113.920 25.322,112.600 25.324 C 111.280 25.326,110.788 25.401,111.507 25.490 M286.700 25.489 C 287.415 25.578,288.585 25.578,289.300 25.489 C 290.015 25.401,289.430 25.328,288.000 25.328 C 286.570 25.328,285.985 25.401,286.700 25.489 M101.300 26.596 C 100.585 26.907,100.000 27.271,100.000 27.404 C 100.000 27.538,100.206 27.520,100.458 27.364 C 100.709 27.209,101.654 26.850,102.558 26.568 C 103.461 26.285,103.840 26.049,103.400 26.042 C 102.960 26.036,102.015 26.286,101.300 26.596 M297.600 26.189 C 297.600 26.506,300.500 27.633,300.728 27.405 C 300.841 27.292,300.835 27.200,300.716 27.200 C 300.596 27.200,299.846 26.928,299.049 26.595 C 298.252 26.262,297.600 26.079,297.600 26.189 M198.923 33.915 C 198.661 34.082,199.143 34.218,200.000 34.218 C 200.857 34.218,201.339 34.082,201.077 33.915 C 200.814 33.749,200.330 33.612,200.000 33.612 C 199.670 33.612,199.186 33.749,198.923 33.915 M229.200 50.179 C 229.200 50.289,229.740 50.659,230.400 51.000 C 231.060 51.341,231.600 51.531,231.600 51.421 C 231.600 51.311,231.060 50.941,230.400 50.600 C 229.740 50.259,229.200 50.069,229.200 50.179 M168.300 51.429 C 166.805 52.240,166.896 52.578,168.400 51.800 C 169.060 51.459,169.600 51.094,169.600 50.990 C 169.600 50.732,169.557 50.747,168.300 51.429 M244.300 55.489 C 245.015 55.578,246.185 55.578,246.900 55.489 C 247.615 55.401,247.030 55.328,245.600 55.328 C 244.170 55.328,243.585 55.401,244.300 55.489 M147.519 55.898 C 149.344 55.972,152.224 55.972,153.919 55.897 C 155.614 55.822,154.120 55.761,150.600 55.762 C 147.080 55.762,145.694 55.824,147.519 55.898 M263.491 55.889 C 264.201 55.977,265.461 55.979,266.291 55.892 C 267.121 55.805,266.540 55.733,265.000 55.731 C 263.460 55.729,262.781 55.800,263.491 55.889 M115.949 56.700 C 115.471 57.309,115.478 57.340,116.000 56.935 C 116.330 56.680,117.140 56.392,117.800 56.295 L 119.000 56.120 117.749 56.060 C 116.977 56.023,116.288 56.268,115.949 56.700 M282.000 56.155 C 282.000 56.240,282.530 56.387,283.179 56.482 C 283.827 56.577,284.267 56.508,284.155 56.328 C 283.957 56.007,282.000 55.850,282.000 56.155 M285.400 59.200 C 285.741 59.860,286.111 60.400,286.221 60.400 C 286.331 60.400,286.141 59.860,285.800 59.200 C 285.459 58.540,285.089 58.000,284.979 58.000 C 284.869 58.000,285.059 58.540,285.400 59.200 M110.039 66.624 C 109.577 67.407,109.380 67.936,109.602 67.799 C 110.036 67.531,111.334 65.200,111.050 65.200 C 110.956 65.200,110.501 65.841,110.039 66.624 M374.901 107.400 C 374.905 108.280,374.987 108.593,375.083 108.095 C 375.179 107.598,375.175 106.878,375.075 106.495 C 374.975 106.113,374.896 106.520,374.901 107.400 M251.800 108.800 C 250.931 109.021,251.427 109.107,253.600 109.113 C 255.659 109.118,256.286 109.020,255.600 108.800 C 254.365 108.404,253.355 108.404,251.800 108.800 M249.000 109.085 C 248.560 109.191,248.020 109.460,247.800 109.684 C 247.530 109.958,247.725 109.995,248.400 109.797 C 250.471 109.189,250.955 108.615,249.000 109.085 M24.893 110.800 C 24.893 111.570,24.975 111.885,25.076 111.500 C 25.176 111.115,25.176 110.485,25.076 110.100 C 24.975 109.715,24.893 110.030,24.893 110.800 M333.401 110.402 C 333.669 110.836,336.000 112.134,336.000 111.850 C 336.000 111.756,335.359 111.301,334.576 110.839 C 333.793 110.377,333.264 110.180,333.401 110.402 M64.297 111.566 C 62.653 112.619,62.425 112.991,63.875 112.254 C 64.576 111.897,65.261 111.424,65.398 111.203 C 65.719 110.684,65.623 110.715,64.297 111.566 M336.400 112.179 C 336.400 112.289,336.940 112.659,337.600 113.000 C 338.260 113.341,338.800 113.531,338.800 113.421 C 338.800 113.311,338.260 112.941,337.600 112.600 C 336.940 112.259,336.400 112.069,336.400 112.179 M24.548 119.600 C 24.548 121.910,24.614 122.855,24.695 121.700 C 24.776 120.545,24.776 118.655,24.695 117.500 C 24.614 116.345,24.548 117.290,24.548 119.600 M343.857 116.400 C 344.108 116.730,344.402 117.360,344.511 117.800 C 344.697 118.560,344.710 118.557,344.754 117.749 C 344.779 117.281,344.485 116.651,344.100 116.349 C 343.491 115.872,343.460 115.878,343.857 116.400 M268.561 122.537 C 268.582 123.519,268.735 124.240,268.900 124.138 C 269.302 123.890,269.271 121.932,268.855 121.275 C 268.652 120.955,268.537 121.446,268.561 122.537 M344.524 124.200 C 344.526 125.520,344.601 126.012,344.690 125.293 C 344.779 124.574,344.777 123.494,344.686 122.893 C 344.595 122.292,344.522 122.880,344.524 124.200 M55.324 133.000 C 55.326 134.320,55.401 134.812,55.490 134.093 C 55.579 133.374,55.577 132.294,55.486 131.693 C 55.395 131.092,55.322 131.680,55.324 133.000 M344.934 135.200 C 344.934 136.850,345.005 137.525,345.091 136.700 C 345.178 135.875,345.178 134.525,345.091 133.700 C 345.005 132.875,344.934 133.550,344.934 135.200 M54.934 144.000 C 54.934 145.650,55.005 146.325,55.091 145.500 C 55.178 144.675,55.178 143.325,55.091 142.500 C 55.005 141.675,54.934 142.350,54.934 144.000 M344.924 143.800 C 344.926 145.120,345.001 145.612,345.090 144.893 C 345.179 144.174,345.177 143.094,345.086 142.493 C 344.995 141.892,344.922 142.480,344.924 143.800 M227.579 148.255 C 227.358 148.836,227.252 149.385,227.343 149.476 C 227.433 149.567,227.699 149.092,227.933 148.420 C 228.453 146.928,228.139 146.782,227.579 148.255 M345.350 153.400 C 345.351 155.820,345.416 156.758,345.496 155.485 C 345.576 154.212,345.575 152.232,345.494 151.085 C 345.414 149.938,345.349 150.980,345.350 153.400 M54.924 152.600 C 54.926 153.920,55.001 154.412,55.090 153.693 C 55.179 152.974,55.177 151.894,55.086 151.293 C 54.995 150.692,54.922 151.280,54.924 152.600 M54.400 161.626 C 54.400 162.301,54.210 163.246,53.978 163.726 C 53.570 164.570,53.577 164.574,54.178 163.824 C 54.743 163.118,55.078 160.400,54.600 160.400 C 54.490 160.400,54.400 160.952,54.400 161.626 M346.200 164.400 C 346.541 165.060,346.911 165.600,347.021 165.600 C 347.131 165.600,346.941 165.060,346.600 164.400 C 346.259 163.740,345.889 163.200,345.779 163.200 C 345.669 163.200,345.859 163.740,346.200 164.400 M251.267 170.780 C 251.033 171.451,250.927 172.000,251.031 172.000 C 251.301 172.000,252.056 169.922,251.857 169.724 C 251.767 169.633,251.501 170.108,251.267 170.780 M7.014 184.235 C 6.641 184.804,6.405 185.338,6.489 185.422 C 6.573 185.507,6.958 185.041,7.344 184.388 C 8.206 182.928,7.948 182.809,7.014 184.235 M207.400 198.261 C 207.064 199.065,206.882 199.815,206.995 199.928 C 207.108 200.041,207.200 200.035,207.200 199.916 C 207.200 199.796,207.472 199.046,207.805 198.249 C 208.138 197.452,208.321 196.800,208.211 196.800 C 208.101 196.800,207.736 197.458,207.400 198.261 M391.494 219.303 L 390.788 220.600 391.594 219.656 C 392.280 218.852,392.646 217.994,392.300 218.003 C 392.245 218.004,391.882 218.589,391.494 219.303 M50.600 231.600 C 50.941 232.260,51.311 232.800,51.421 232.800 C 51.531 232.800,51.341 232.260,51.000 231.600 C 50.659 230.940,50.289 230.400,50.179 230.400 C 50.069 230.400,50.259 230.940,50.600 231.600 M347.302 234.900 C 346.736 235.615,345.940 237.200,346.146 237.200 C 346.242 237.200,346.693 236.570,347.147 235.800 C 347.973 234.401,348.049 233.957,347.302 234.900 M345.354 238.177 C 345.232 238.494,345.203 239.079,345.289 239.477 C 345.387 239.928,345.524 239.712,345.654 238.900 C 345.871 237.538,345.730 237.196,345.354 238.177 M54.501 239.400 C 54.505 240.280,54.587 240.593,54.683 240.095 C 54.779 239.598,54.775 238.878,54.675 238.495 C 54.575 238.113,54.496 238.520,54.501 239.400 M345.351 247.600 C 345.351 250.130,345.416 251.165,345.496 249.900 C 345.575 248.635,345.575 246.565,345.496 245.300 C 345.416 244.035,345.351 245.070,345.351 247.600 M54.924 248.600 C 54.926 249.920,55.001 250.412,55.090 249.693 C 55.179 248.974,55.177 247.894,55.086 247.293 C 54.995 246.692,54.922 247.280,54.924 248.600 M187.179 247.855 C 186.958 248.436,186.852 248.985,186.943 249.076 C 187.033 249.167,187.299 248.692,187.533 248.020 C 188.053 246.528,187.739 246.382,187.179 247.855 M131.200 248.953 C 131.200 249.283,131.380 249.664,131.600 249.800 C 131.820 249.936,132.000 249.777,132.000 249.447 C 132.000 249.117,131.820 248.736,131.600 248.600 C 131.380 248.464,131.200 248.623,131.200 248.953 M186.065 250.617 C 185.395 252.088,185.523 252.402,186.247 251.065 C 186.586 250.440,186.788 249.854,186.696 249.763 C 186.605 249.671,186.321 250.056,186.065 250.617 M54.934 257.200 C 54.934 258.850,55.005 259.525,55.091 258.700 C 55.178 257.875,55.178 256.525,55.091 255.700 C 55.005 254.875,54.934 255.550,54.934 257.200 M344.928 257.200 C 344.928 258.630,345.001 259.215,345.089 258.500 C 345.178 257.785,345.178 256.615,345.089 255.900 C 345.001 255.185,344.928 255.770,344.928 257.200 M344.937 265.800 C 344.939 267.560,345.009 268.230,345.093 267.289 C 345.178 266.349,345.177 264.909,345.091 264.089 C 345.005 263.270,344.936 264.040,344.937 265.800 M55.324 268.200 C 55.326 269.520,55.401 270.012,55.490 269.293 C 55.579 268.574,55.577 267.494,55.486 266.893 C 55.395 266.292,55.322 266.880,55.324 268.200 M212.065 268.217 C 211.395 269.688,211.523 270.002,212.247 268.665 C 212.586 268.040,212.788 267.454,212.696 267.363 C 212.605 267.271,212.321 267.656,212.065 268.217 M154.400 270.420 C 155.787 271.361,156.578 271.635,155.600 270.836 C 155.050 270.386,154.420 270.017,154.200 270.015 C 153.980 270.013,154.070 270.196,154.400 270.420 M210.867 271.180 C 210.633 271.851,210.527 272.400,210.631 272.400 C 210.901 272.400,211.656 270.322,211.457 270.124 C 211.367 270.033,211.101 270.508,210.867 271.180 M209.667 273.980 C 209.433 274.651,209.327 275.200,209.431 275.200 C 209.701 275.200,210.456 273.122,210.257 272.924 C 210.167 272.833,209.901 273.308,209.667 273.980 M344.528 276.800 C 344.528 278.230,344.601 278.815,344.689 278.100 C 344.778 277.385,344.778 276.215,344.689 275.500 C 344.601 274.785,344.528 275.370,344.528 276.800 M24.553 281.000 C 24.553 283.640,24.618 284.668,24.697 283.284 C 24.775 281.901,24.774 279.741,24.695 278.484 C 24.616 277.228,24.552 278.360,24.553 281.000 M61.600 287.750 C 61.600 287.844,62.241 288.299,63.024 288.761 C 63.807 289.223,64.336 289.420,64.199 289.198 C 63.931 288.764,61.600 287.466,61.600 287.750 M335.144 289.624 L 334.200 290.447 335.400 289.745 C 336.979 288.820,337.003 288.800,336.511 288.800 C 336.279 288.800,335.664 289.171,335.144 289.624 M24.893 290.400 C 24.893 291.170,24.975 291.485,25.076 291.100 C 25.176 290.715,25.176 290.085,25.076 289.700 C 24.975 289.315,24.893 289.630,24.893 290.400 M186.800 290.976 C 186.800 291.516,189.377 292.406,191.466 292.587 L 193.800 292.790 191.200 292.279 C 189.770 291.998,188.195 291.544,187.700 291.270 C 187.205 290.996,186.800 290.864,186.800 290.976 M195.000 292.000 C 193.893 292.282,193.877 292.309,194.800 292.347 C 195.350 292.369,196.070 292.213,196.400 292.000 C 197.081 291.560,196.729 291.560,195.000 292.000 M25.293 295.600 C 25.293 296.370,25.375 296.685,25.476 296.300 C 25.576 295.915,25.576 295.285,25.476 294.900 C 25.375 294.515,25.293 294.830,25.293 295.600 M373.391 300.028 C 373.236 300.517,372.371 301.745,371.469 302.758 L 369.828 304.600 371.348 303.200 C 372.862 301.806,374.233 299.700,373.866 299.333 C 373.760 299.227,373.546 299.539,373.391 300.028 M328.895 328.266 C 328.618 328.378,328.203 328.859,327.973 329.335 C 327.616 330.076,327.633 330.114,328.096 329.600 C 328.393 329.270,328.889 328.775,329.198 328.500 C 329.787 327.976,329.729 327.931,328.895 328.266 M119.491 345.089 C 120.201 345.177,121.461 345.179,122.291 345.092 C 123.121 345.005,122.540 344.933,121.000 344.931 C 119.460 344.929,118.781 345.000,119.491 345.089 M277.500 345.089 C 278.215 345.178,279.385 345.178,280.100 345.089 C 280.815 345.001,280.230 344.928,278.800 344.928 C 277.370 344.928,276.785 345.001,277.500 345.089 M130.291 345.489 C 131.001 345.577,132.261 345.579,133.091 345.492 C 133.921 345.405,133.340 345.333,131.800 345.331 C 130.260 345.329,129.581 345.400,130.291 345.489 M139.500 345.489 C 140.215 345.578,141.385 345.578,142.100 345.489 C 142.815 345.401,142.230 345.328,140.800 345.328 C 139.370 345.328,138.785 345.401,139.500 345.489 M257.900 345.489 C 258.615 345.578,259.785 345.578,260.500 345.489 C 261.215 345.401,260.630 345.328,259.200 345.328 C 257.770 345.328,257.185 345.401,257.900 345.489 M266.500 345.491 C 267.325 345.578,268.675 345.578,269.500 345.491 C 270.325 345.405,269.650 345.334,268.000 345.334 C 266.350 345.334,265.675 345.405,266.500 345.491 M147.900 345.895 C 149.055 345.976,150.945 345.976,152.100 345.895 C 153.255 345.814,152.310 345.748,150.000 345.748 C 147.690 345.748,146.745 345.814,147.900 345.895 M160.200 345.963 C 161.520 346.095,162.870 346.351,163.200 346.531 C 163.530 346.712,163.451 346.576,163.024 346.230 C 162.499 345.804,161.526 345.620,160.024 345.661 L 157.800 345.722 160.200 345.963 M238.900 345.887 C 239.505 345.978,240.495 345.978,241.100 345.887 C 241.705 345.795,241.210 345.720,240.000 345.720 C 238.790 345.720,238.295 345.795,238.900 345.887 M247.715 345.896 C 248.988 345.976,250.968 345.975,252.115 345.894 C 253.262 345.814,252.220 345.749,249.800 345.750 C 247.380 345.751,246.442 345.816,247.715 345.896 M166.800 348.579 C 166.800 348.689,167.340 349.059,168.000 349.400 C 168.660 349.741,169.200 349.931,169.200 349.821 C 169.200 349.711,168.660 349.341,168.000 349.000 C 167.340 348.659,166.800 348.469,166.800 348.579 M302.370 371.853 C 301.836 372.432,300.500 373.330,299.400 373.849 C 298.300 374.368,297.632 374.794,297.916 374.796 C 298.839 374.803,301.372 373.303,302.575 372.037 C 303.221 371.356,303.657 370.800,303.545 370.800 C 303.432 370.800,302.903 371.274,302.370 371.853 M99.400 373.600 C 100.060 374.037,100.780 374.395,101.000 374.396 C 101.220 374.396,100.811 374.038,100.090 373.599 C 98.392 372.563,97.836 372.564,99.400 373.600 " stroke="none" fill="#555555" fill-rule="evenodd"></path><path id="path3" d="M157.500 55.882 C 157.995 55.978,158.805 55.978,159.300 55.882 C 159.795 55.787,159.390 55.709,158.400 55.709 C 157.410 55.709,157.005 55.787,157.500 55.882 M119.300 56.276 C 119.685 56.376,120.315 56.376,120.700 56.276 C 121.085 56.175,120.770 56.093,120.000 56.093 C 119.230 56.093,118.915 56.175,119.300 56.276 M146.100 231.876 C 146.485 231.976,147.115 231.976,147.500 231.876 C 147.885 231.775,147.570 231.693,146.800 231.693 C 146.030 231.693,145.715 231.775,146.100 231.876 " stroke="none" fill="#7c7c7c" fill-rule="evenodd"></path><path id="path4" d="M113.900 25.082 C 114.395 25.178,115.205 25.178,115.700 25.082 C 116.195 24.987,115.790 24.909,114.800 24.909 C 113.810 24.909,113.405 24.987,113.900 25.082 M284.700 25.082 C 285.195 25.178,286.005 25.178,286.500 25.082 C 286.995 24.987,286.590 24.909,285.600 24.909 C 284.610 24.909,284.205 24.987,284.700 25.082 M239.505 55.483 C 240.002 55.579,240.722 55.575,241.105 55.475 C 241.487 55.375,241.080 55.296,240.200 55.301 C 239.320 55.305,239.007 55.387,239.505 55.483 M258.900 55.876 C 259.285 55.976,259.915 55.976,260.300 55.876 C 260.685 55.775,260.370 55.693,259.600 55.693 C 258.830 55.693,258.515 55.775,258.900 55.876 M122.307 56.290 C 123.026 56.379,124.106 56.377,124.707 56.286 C 125.308 56.195,124.720 56.122,123.400 56.124 C 122.080 56.126,121.588 56.201,122.307 56.290 M278.500 56.276 C 278.885 56.376,279.515 56.376,279.900 56.276 C 280.285 56.175,279.970 56.093,279.200 56.093 C 278.430 56.093,278.115 56.175,278.500 56.276 M55.701 119.000 C 55.705 119.880,55.787 120.193,55.883 119.695 C 55.979 119.198,55.975 118.478,55.875 118.095 C 55.775 117.713,55.696 118.120,55.701 119.000 M344.501 129.800 C 344.505 130.680,344.587 130.993,344.683 130.495 C 344.779 129.998,344.775 129.278,344.675 128.895 C 344.575 128.513,344.496 128.920,344.501 129.800 M55.301 138.600 C 55.305 139.480,55.387 139.793,55.483 139.295 C 55.579 138.798,55.575 138.078,55.475 137.695 C 55.375 137.313,55.296 137.720,55.301 138.600 M344.901 149.400 C 344.905 150.280,344.987 150.593,345.083 150.095 C 345.179 149.598,345.175 148.878,345.075 148.495 C 344.975 148.113,344.896 148.520,344.901 149.400 M54.901 158.200 C 54.905 159.080,54.987 159.393,55.083 158.895 C 55.179 158.398,55.175 157.678,55.075 157.295 C 54.975 156.913,54.896 157.320,54.901 158.200 M193.300 232.500 C 192.870 233.675,192.880 233.726,193.412 233.024 C 193.921 232.352,194.221 231.200,193.888 231.200 C 193.826 231.200,193.561 231.785,193.300 232.500 M135.156 235.700 C 134.686 236.595,134.688 236.596,135.542 235.838 C 136.495 234.991,136.582 234.800,136.014 234.800 C 135.802 234.800,135.416 235.205,135.156 235.700 M54.901 243.000 C 54.905 243.880,54.987 244.193,55.083 243.695 C 55.179 243.198,55.175 242.478,55.075 242.095 C 54.975 241.713,54.896 242.120,54.901 243.000 M344.901 251.400 C 344.905 252.280,344.987 252.593,345.083 252.095 C 345.179 251.598,345.175 250.878,345.075 250.495 C 344.975 250.113,344.896 250.520,344.901 251.400 M55.301 262.600 C 55.305 263.480,55.387 263.793,55.483 263.295 C 55.579 262.798,55.575 262.078,55.475 261.695 C 55.375 261.313,55.296 261.720,55.301 262.600 M344.501 271.400 C 344.505 272.280,344.587 272.593,344.683 272.095 C 344.779 271.598,344.775 270.878,344.675 270.495 C 344.575 270.113,344.496 270.520,344.501 271.400 M55.701 282.200 C 55.705 283.080,55.787 283.393,55.883 282.895 C 55.979 282.398,55.975 281.678,55.875 281.295 C 55.775 280.913,55.696 281.320,55.701 282.200 M125.905 345.083 C 126.402 345.179,127.122 345.175,127.505 345.075 C 127.887 344.975,127.480 344.896,126.600 344.901 C 125.720 344.905,125.407 344.987,125.905 345.083 M272.705 345.083 C 273.202 345.179,273.922 345.175,274.305 345.075 C 274.687 344.975,274.280 344.896,273.400 344.901 C 272.520 344.905,272.207 344.987,272.705 345.083 M145.505 345.483 C 146.002 345.579,146.722 345.575,147.105 345.475 C 147.487 345.375,147.080 345.296,146.200 345.301 C 145.320 345.305,145.007 345.387,145.505 345.483 M253.105 345.483 C 253.602 345.579,254.322 345.575,254.705 345.475 C 255.087 345.375,254.680 345.296,253.800 345.301 C 252.920 345.305,252.607 345.387,253.105 345.483 M128.927 376.300 C 133.507 376.364,140.887 376.364,145.327 376.299 C 149.767 376.235,146.020 376.183,137.000 376.183 C 127.980 376.183,124.347 376.235,128.927 376.300 M254.927 376.300 C 259.507 376.364,266.887 376.364,271.327 376.299 C 275.767 376.235,272.020 376.183,263.000 376.183 C 253.980 376.183,250.347 376.235,254.927 376.300 " stroke="none" fill="#848484" fill-rule="evenodd"></path></g></svg>